<?xml version="1.0" encoding="UTF-8"?>
<svg width="40px" height="40px" viewBox="0 0 40 40" version="1.1" xmlns="http://www.w3.org/2000/svg" xmlns:xlink="http://www.w3.org/1999/xlink">
    <!-- Generator: Sketch 40.3 (33839) - http://www.bohemiancoding.com/sketch -->
    <title>article</title>
    <desc>Created with Sketch.</desc>
    <defs></defs>
    <g id="Symbols" stroke="none" stroke-width="1" fill="none" fill-rule="evenodd">
        <g id="article" fill="#8B8687">
            <path d="M12.5533835,15.9218045 L12,15.9218045 L12.0842105,12 L27.9157895,12 L28,15.9218045 L27.4827068,15.9218045 C27.2982447,14.8471124 27.0456156,14.0711803 26.724812,13.593985 C26.4040084,13.1167896 26.0591497,12.8240607 25.6902256,12.7157895 C25.3213014,12.6075183 24.6917338,12.5533835 23.8015038,12.5533835 L21.1789474,12.5533835 L21.1789474,24.0661654 C21.1789474,25.3413598 21.2090223,26.1794466 21.2691729,26.5804511 C21.3293236,26.9814556 21.491728,27.2781945 21.756391,27.4706767 C22.021054,27.6631589 22.5182921,27.7593985 23.2481203,27.7593985 L24.0421053,27.7593985 L24.0421053,28.312782 L15.9097744,28.312782 L15.9097744,27.7593985 L16.7518797,27.7593985 C17.4496275,27.7593985 17.9328307,27.6711788 18.2015038,27.4947368 C18.4701768,27.3182949 18.6426061,27.0436109 18.718797,26.6706767 C18.7949878,26.2977425 18.8330827,25.4295808 18.8330827,24.0661654 L18.8330827,12.5533835 L16.4150376,12.5533835 C15.3644058,12.5533835 14.6586484,12.6035083 14.2977444,12.7037594 C13.9368403,12.8040105 13.5979966,13.1067644 13.281203,13.6120301 C12.9644094,14.1172958 12.7218054,14.8872129 12.5533835,15.9218045 L12.5533835,15.9218045 Z" id="T"></path>
        </g>
    </g>
</svg>