<?xml version="1.0" encoding="UTF-8" standalone="no"?>
<svg width="9px" height="17px" viewBox="0 0 9 17" version="1.1" xmlns="http://www.w3.org/2000/svg" xmlns:xlink="http://www.w3.org/1999/xlink">
    <!-- Generator: Sketch 39.1 (31720) - http://www.bohemiancoding.com/sketch -->
    <title>back</title>
    <desc>Created with Sketch.</desc>
    <defs></defs>
    <g id="飞地1.0" stroke="none" stroke-width="1" fill="none" fill-rule="evenodd">
        <g id="文库" transform="translate(-17.000000, -34.000000)">
            <g id="header">
                <g id="back" transform="translate(10.000000, 30.000000)">
                    <g>
                        <rect id="Rectangle-4" fill-opacity="0" fill="#D8D8D8" x="0" y="0" width="25" height="25"></rect>
                        <path d="M7,12.976037 C7,13.1368842 7.05361574,13.2441157 7.16084722,13.3513472 C8.82293517,15.0670509 13.2730416,19.5171573 14.7206666,20.9647823 C14.8278981,21.018398 14.8815138,21.018398 14.9887453,20.9111665 C15.1495925,20.6967036 15.256824,20.2677777 15.1495925,20.1605462 C13.809199,18.552074 10.913949,14.6381249 9.51993979,12.7079583 C10.5386389,10.9922546 13.4338888,6.8638426 14.7206666,4.88006021 C14.8278981,4.71921299 14.6670509,4.34390281 14.4525879,4.07582411 C14.3989721,4.02220837 14.3453564,3.96859263 14.2917407,4.02220837 C12.6832685,5.84514353 8.93016665,10.29525 7.16084722,12.4398796 C7.05361574,12.6007268 7,12.8151898 7,12.9224212 L7,12.976037 Z" id="&lt;" fill="#000000"></path>
                    </g>
                </g>
            </g>
        </g>
    </g>
</svg>