<?xml version="1.0" encoding="UTF-8" standalone="no"?>
<svg width="100px" height="100px" viewBox="0 0 100 100" version="1.1" xmlns="http://www.w3.org/2000/svg" xmlns:xlink="http://www.w3.org/1999/xlink">
    <!-- Generator: Sketch 39.1 (31720) - http://www.bohemiancoding.com/sketch -->
    <title>camera button</title>
    <desc>Created with Sketch.</desc>
    <defs>
        <circle id="path-1" cx="50" cy="50" r="50"></circle>
        <mask id="mask-2" maskContentUnits="userSpaceOnUse" maskUnits="objectBoundingBox" x="0" y="0" width="100" height="100" fill="white">
            <use xlink:href="#path-1"></use>
        </mask>
        <path d="M68.75,38.1666667 L62.226,38.1666667 C61.378125,38.1666667 60.58275,37.754381 60.090125,37.0601905 L57.871125,32.925 C57.56575,32.3559048 56.975125,32 56.331125,32 L42.66975,32 C42.026625,32 41.435125,32.3550238 41.12975,32.925 L38.91075,37.0601905 C38.418125,37.754381 37.621875,38.1666667 36.774875,38.1666667 L30.25,38.1666667 C27.351125,38.1666667 25,40.5337857 25,43.452381 L25,63.7142857 C25,66.632881 27.351125,69 30.25,69 L68.75,69 C71.648875,69 74,66.632881 74,63.7142857 L74,43.452381 C74,40.5337857 71.648875,38.1666667 68.75,38.1666667 L68.75,38.1666667 Z M72.25,63.7142857 C72.25,65.6576667 70.679375,67.2380952 68.75,67.2380952 L30.25,67.2380952 C28.320625,67.2380952 26.75,65.6576667 26.75,63.7142857 L26.75,43.452381 C26.75,41.509 28.320625,39.9285714 30.25,39.9285714 L36.774,39.9285714 C38.18275,39.9285714 39.5145,39.2396667 40.3335,38.0847381 L40.397375,37.994881 L40.449875,37.8970952 L42.668875,33.7619048 L56.33025,33.7619048 L58.54925,37.8970952 L58.60175,37.994881 L58.665625,38.0847381 C59.4855,39.2396667 60.816375,39.9285714 62.225125,39.9285714 L68.749125,39.9285714 C70.6785,39.9285714 72.249125,41.509 72.249125,43.452381 L72.249125,63.7142857 L72.25,63.7142857 L72.25,63.7142857 Z M49.5,41.6904762 C43.701375,41.6904762 39,46.4238333 39,52.2619048 C39,58.0999762 43.701375,62.8333333 49.5,62.8333333 C55.298625,62.8333333 60,58.0999762 60,52.2619048 C60,46.4238333 55.298625,41.6904762 49.5,41.6904762 L49.5,41.6904762 Z M49.5,61.2916667 C44.5545,61.2916667 40.53125,57.2410476 40.53125,52.2619048 C40.53125,47.2827619 44.5545,43.2321429 49.5,43.2321429 C54.4455,43.2321429 58.46875,47.2827619 58.46875,52.2619048 C58.46875,57.2410476 54.4455,61.2916667 49.5,61.2916667 L49.5,61.2916667 Z M67.875,45.2142857 C67.875,46.1868571 67.091,46.9761905 66.125,46.9761905 C65.159,46.9761905 64.375,46.1868571 64.375,45.2142857 C64.375,44.2417143 65.159,43.452381 66.125,43.452381 C67.091,43.452381 67.875,44.2417143 67.875,45.2142857 L67.875,45.2142857 Z" id="path-3"></path>
    </defs>
    <g id="Page-1" stroke="none" stroke-width="1" fill="none" fill-rule="evenodd">
        <g id="信息填写" transform="translate(-138.000000, -99.000000)">
            <g id="camera-button" transform="translate(138.000000, 99.000000)">
                <use id="Oval-25" stroke-opacity="0.497877038" stroke="#FFFFFF" mask="url(#mask-2)" stroke-width="2" fill-opacity="0" fill="#D8D8D8" xlink:href="#path-1"></use>
                <mask id="mask-4" fill="white">
                    <use xlink:href="#path-3"></use>
                </mask>
                <g id="Clip-5"></g>
                <polygon id="Fill-4" fill-opacity="0.497877038" fill="#FFFFFF" mask="url(#mask-4)" points="20.625 27.5952381 78.375 27.5952381 78.375 73.4047619 20.625 73.4047619"></polygon>
            </g>
        </g>
    </g>
</svg>