<?xml version="1.0" encoding="UTF-8" standalone="no"?>
<svg width="42px" height="40px" viewBox="0 0 42 40" version="1.1" xmlns="http://www.w3.org/2000/svg" xmlns:xlink="http://www.w3.org/1999/xlink">
    <!-- Generator: Sketch 39.1 (31720) - http://www.bohemiancoding.com/sketch -->
    <title>comment / big</title>
    <desc>Created with Sketch.</desc>
    <defs></defs>
    <g id="飞地1.0" stroke="none" stroke-width="1" fill="none" fill-rule="evenodd">
        <g id="drawer" transform="translate(-43.000000, -326.000000)" fill="#FFFFFF">
            <g id="评论">
                <g transform="translate(39.000000, 321.000000)">
                    <g id="comment-/-big">
                        <g id="comment" transform="translate(4.000000, 5.000000)">
                            <path d="M26.975765,33.2764559 C27.8938243,34.3800256 30.2687908,36.884897 33.4668611,37.6644247 C31.5961472,35.5381504 31.6382758,32.0553272 31.7076215,30.9243431 C35.9476563,27.9721475 38.6842105,23.3090288 38.6842105,18.061822 C38.6842105,9.13658148 30.7667198,1.90124443 21,1.90124443 C11.2332802,1.90124443 3.31578947,9.13658148 3.31578947,18.061822 C3.31578947,26.9870626 11.2332802,34.2223997 21,34.2223997 C23.0972159,34.2223997 25.109165,33.8887831 26.975765,33.2764559 Z M25.9013052,35.6290594 C27.7775878,37.3333369 31.5301394,39.9721095 36.7787042,39.9721096 C34.5002081,37.374705 33.8069039,34.6136895 33.7011919,32.4468183 C38.7442705,29.1478001 42,23.9318231 42,18.061822 C42,8.08655318 32.5979797,0 21,0 C9.40202025,0 0,8.08655318 0,18.061822 C0,28.0370909 9.40202025,36.1236441 21,36.1236441 C22.6876673,36.1236441 24.3288367,35.952417 25.9013052,35.6290594 Z" id="Combined-Shape"></path>
                        </g>
                    </g>
                </g>
            </g>
        </g>
    </g>
</svg>