<?xml version="1.0" encoding="UTF-8" standalone="no"?>
<svg width="25px" height="25px" viewBox="0 0 25 25" version="1.1" xmlns="http://www.w3.org/2000/svg" xmlns:xlink="http://www.w3.org/1999/xlink">
    <!-- Generator: Sketch 39.1 (31720) - http://www.bohemiancoding.com/sketch -->
    <title>comment /</title>
    <desc>Created with Sketch.</desc>
    <defs></defs>
    <g id="Symbols" stroke="none" stroke-width="1" fill="none" fill-rule="evenodd" fill-opacity="0.699999988">
        <g id="comment-/" fill="#000000">
            <g id="comment" transform="translate(3.000000, 4.000000)">
                <path d="M12.2033223,15.0878476 C12.6186348,15.5882161 13.6930244,16.7239476 15.1397705,17.0773926 C14.2934952,16.1133205 14.3125533,14.5341767 14.343924,14.0213783 C16.262035,12.682826 17.5,10.5685256 17.5,8.18939431 C17.5,4.1426091 13.918278,0.862041507 9.5,0.862041507 C5.081722,0.862041507 1.5,4.1426091 1.5,8.18939431 C1.5,12.2361795 5.081722,15.5167471 9.5,15.5167471 C10.4487405,15.5167471 11.358908,15.3654823 12.2033223,15.0878476 Z M11.7172571,16.1545394 C12.5660516,16.9272743 14.2636345,18.1237178 16.6379852,18.1237179 C15.607237,16.946031 15.2935994,15.6941615 15.2457773,14.7116824 C17.52717,13.2158775 19,10.8509062 19,8.18939431 C19,3.66651672 14.7467051,0 9.5,0 C4.25329488,0 0,3.66651672 0,8.18939431 C0,12.7122719 4.25329488,16.3787886 9.5,16.3787886 C10.2634685,16.3787886 11.0059023,16.3011527 11.7172571,16.1545394 Z" id="Combined-Shape"></path>
            </g>
        </g>
    </g>
</svg>