<?xml version="1.0" encoding="UTF-8" standalone="no"?>
<svg width="50px" height="50px" viewBox="0 0 50 50" version="1.1" xmlns="http://www.w3.org/2000/svg" xmlns:xlink="http://www.w3.org/1999/xlink">
    <!-- Generator: Sketch 39.1 (31720) - http://www.bohemiancoding.com/sketch -->
    <title>douban L</title>
    <desc>Created with Sketch.</desc>
    <defs></defs>
    <g id="登录注册" stroke="none" stroke-width="1" fill="none" fill-rule="evenodd">
        <g id="登录" transform="translate(-275.000000, -541.000000)" fill="#FFFFFF">
            <g id="第三方登录" transform="translate(50.000000, 504.000000)">
                <path d="M250,87 C263.807119,87 275,75.8071194 275,62 C275,48.1928806 263.807119,37 250,37 C236.192881,37 225,48.1928806 225,62 C225,75.8071194 236.192881,87 250,87 Z M250,85 C262.70255,85 273,74.7025499 273,62 C273,49.2974501 262.70255,39 250,39 C237.29745,39 227,49.2974501 227,62 C227,74.7025499 237.29745,85 250,85 Z M262.509766,52.5546875 L237.724609,52.5546875 L237.724609,50.0351562 L262.509766,50.0351562 L262.509766,52.5546875 Z M263.081055,74.8056641 L236.977539,74.8056641 L236.977539,72.2568359 L244.785156,72.2568359 C243.82812,70.1767474 242.817388,68.3798904 241.75293,66.8662109 L243.759766,65.5771484 L240.244141,65.5771484 L240.244141,55.5136719 L260.078125,55.5136719 L260.078125,65.5771484 L256.386719,65.5771484 L258.393555,66.8955078 C257.446284,68.9755963 256.459966,70.7626878 255.43457,72.2568359 L263.081055,72.2568359 L263.081055,74.8056641 Z M257.294922,63.0429688 L257.294922,58.1064453 L243.012695,58.1064453 L243.012695,63.0429688 L257.294922,63.0429688 Z M255.90332,65.5771484 L244.272461,65.5771484 C245.522467,67.657237 246.660151,69.8837772 247.685547,72.2568359 L252.431641,72.2568359 C253.886726,70.0009653 255.043941,67.774425 255.90332,65.5771484 Z" id="douban-L"></path>
            </g>
        </g>
    </g>
</svg>