<?xml version="1.0" encoding="UTF-8" standalone="no"?>
<svg width="19px" height="15px" viewBox="0 0 19 15" version="1.1" xmlns="http://www.w3.org/2000/svg" xmlns:xlink="http://www.w3.org/1999/xlink">
    <!-- Generator: Sketch 39.1 (31720) - http://www.bohemiancoding.com/sketch -->
    <title>profile</title>
    <desc>Created with Sketch.</desc>
    <defs></defs>
    <g id="飞地1.0" stroke="none" stroke-width="1" fill="none" fill-rule="evenodd">
        <g id="homepage" transform="translate(-13.000000, -35.000000)" fill="#000000">
            <g id="header">
                <g id="Group" transform="translate(10.000000, 30.000000)">
                    <g id="profile">
                        <g id="Group" transform="translate(3.000000, 5.000000)">
                            <path d="M0,0 C0,0 4.86152872,0.227804795 9.56238461,0.227804795 C14.2632405,0.227804795 19,0 19,0 L19,3 C19,3 14.3435769,2.81830978 9.56238461,2.81830978 C4.78119226,2.81830978 0,3 0,3 L0,0 Z" id="Rectangle-8"></path>
                            <path d="M0,6 C0,6 3.91206844,6.26617619 7.60804558,6.26617619 C11.3040227,6.26617619 15,6 15,6 L15,9 C15,9 11.437794,8.75211096 7.60804558,8.75211096 C3.77829718,8.75211096 0,9 0,9 L0,6 Z" id="Rectangle-8-Copy"></path>
                            <path d="M0,12 C0,12 2.84139234,12.2432902 5.56907988,12.2432902 C8.29676741,12.2432902 11,12 11,12 L11,15 C11,15 8.35361986,14.7510917 5.56907988,14.7510917 C2.78453989,14.7510917 0,15 0,15 L0,12 Z" id="Rectangle-8-Copy-2"></path>
                        </g>
                    </g>
                </g>
            </g>
        </g>
    </g>
</svg>