<?xml version="1.0" encoding="UTF-8" standalone="no"?>
<svg width="25px" height="25px" viewBox="0 0 25 25" version="1.1" xmlns="http://www.w3.org/2000/svg" xmlns:xlink="http://www.w3.org/1999/xlink">
    <!-- Generator: Sketch 39.1 (31720) - http://www.bohemiancoding.com/sketch -->
    <title>favourite /</title>
    <desc>Created with Sketch.</desc>
    <defs></defs>
    <g id="Symbols" stroke="none" stroke-width="1" fill="none" fill-rule="evenodd">
        <g id="favourite-/">
            <g id="favourite">
                <polygon id="Shape" points="0 0 25 0 25 25 0 25"></polygon>
                <path d="M17.5,4 C15.76,4 14.09,4.81 13,6.09 C11.91,4.81 10.24,4 8.5,4 C5.42,4 3,6.42 3,9.5 C3,13.28 6.4,16.36 11.55,21.04 L13,22.35 L14.45,21.03 C19.6,16.36 23,13.28 23,9.5 C23,6.42 20.58,4 17.5,4 L17.5,4 Z M13,21.1103439 L12.9,21.0103439 C8.14,16.7003439 4.29759279,13.1027473 4.29759279,9.5 C4.29759279,7.5 5.92968288,5.0951503 8.44359795,5.0951503 C10.957513,5.0951503 11.9866892,6.09567113 12.6764275,6.9398361 L13.2737671,6.9398361 C13.9719388,6.09795792 14.4663741,5.0951503 17.5531899,5.0951503 C20.6400057,5.0951503 21.6880471,7.5 21.6880474,9.5 C21.688048,13.7483543 17.86,16.7003439 13.1,21.0103439 L13,21.1103439 Z" id="Shape" fill-opacity="0.699999988" fill="#000000"></path>
            </g>
        </g>
    </g>
</svg>