<?xml version="1.0" encoding="UTF-8" standalone="no"?>
<svg width="22px" height="50px" viewBox="0 0 22 50" version="1.1" xmlns="http://www.w3.org/2000/svg" xmlns:xlink="http://www.w3.org/1999/xlink">
    <!-- Generator: Sketch 39.1 (31720) - http://www.bohemiancoding.com/sketch -->
    <title>声音</title>
    <desc>Created with Sketch.</desc>
    <defs></defs>
    <g id="飞地1.0" stroke="none" stroke-width="1" fill="none" fill-rule="evenodd">
        <g id="discover" transform="translate(-82.000000, -311.000000)" fill="#000000">
            <g id="声音" transform="translate(63.000000, 306.000000)">
                <g id="microphone-L">
                    <path d="M26.9968697,39 L33.0031303,39 L33,39 L33,36.0093689 C33,35.4519098 33.4438648,35 34,35 C34.5522847,35 35,35.4433532 35,36.0093689 L35,38.6599895 C37.3301331,37.8373351 39,35.6134201 39,32.9998243 L39,13.0001757 C39,10.3877674 37.3252434,8.1652984 35,7.34152152 L35,9.9906311 C35,10.5566468 34.5522847,11 34,11 C33.4438648,11 33,10.5480902 33,9.9906311 L33,7 L33.0031303,7 L26.9968697,7 L27,7 L27,9.9906311 C27,10.5566468 26.5522847,11 26,11 C25.4438648,11 25,10.5480902 25,9.9906311 L25,7.3400105 C22.6698669,8.1626649 21,10.3865799 21,13.0001757 L21,32.9998243 C21,35.6122326 22.6747566,37.8347016 25,38.6584785 L25,36.0093689 C25,35.4519098 25.4438648,35 26,35 C26.5522847,35 27,35.4433532 27,36.0093689 L27,39 L26.9968697,39 Z M27.004739,5 C22.5838437,5 19,8.58343124 19,13.0007413 L19,32.9992587 C19,37.4179461 22.5836436,41 27.004739,41 L32.995261,41 C37.4161563,41 41,37.4165688 41,32.9992587 L41,13.0007413 C41,8.58205387 37.4163564,5 32.995261,5 L27.004739,5 Z M33.0029293,14 C32.4490268,14 32,14.4438648 32,15 C32,15.5522847 32.4378814,16 33.0029293,16 L39,16 L39,14 L33.0029293,14 Z M33.0029293,18 C32.4490268,18 32,18.4438648 32,19 C32,19.5522847 32.4378814,20 33.0029293,20 L39,20 L39,18 L33.0029293,18 Z M33.0029293,22 C32.4490268,22 32,22.4438648 32,23 C32,23.5522847 32.4378814,24 33.0029293,24 L39,24 L39,22 L33.0029293,22 Z M33.0029293,26 C32.4490268,26 32,26.4438648 32,27 C32,27.5522847 32.4378814,28 33.0029293,28 L39,28 L39,26 L33.0029293,26 Z M33.0029293,30 C32.4490268,30 32,30.4438648 32,31 C32,31.5522847 32.4378814,32 33.0029293,32 L39,32 L39,30 L33.0029293,30 Z M21,14 L21,16 L26.9970707,16 C27.5509732,16 28,15.5561352 28,15 C28,14.4477153 27.5621186,14 26.9970707,14 L21,14 Z M21,18 L21,20 L26.9970707,20 C27.5509732,20 28,19.5561352 28,19 C28,18.4477153 27.5621186,18 26.9970707,18 L21,18 Z M21,22 L21,24 L26.9970707,24 C27.5509732,24 28,23.5561352 28,23 C28,22.4477153 27.5621186,22 26.9970707,22 L21,22 Z M21,26 L21,28 L26.9970707,28 C27.5509732,28 28,27.5561352 28,27 C28,26.4477153 27.5621186,26 26.9970707,26 L21,26 Z M21,30 L21,32 L26.9970707,32 C27.5509732,32 28,31.5561352 28,31 C28,30.4477153 27.5621186,30 26.9970707,30 L21,30 Z M27,46 L27,55 L33,55 L33,46 L27,46 Z M27,41 L27,43 L33,43 L33,41 L27,41 Z M29,43 L29,46 L31,46 L31,43 L29,43 Z M29,7 L29,9.9906311 C29,10.5480902 29.4438648,11 30,11 C30.5522847,11 31,10.5566468 31,9.9906311 L31,7 L29,7 Z M29,39 L29,36.0093689 C29,35.4519098 29.4438648,35 30,35 C30.5522847,35 31,35.4433532 31,36.0093689 L31,39 L29,39 Z"></path>
                </g>
            </g>
        </g>
    </g>
</svg>