<?xml version="1.0" encoding="UTF-8" standalone="no"?>
<svg width="49px" height="42px" viewBox="0 0 49 42" version="1.1" xmlns="http://www.w3.org/2000/svg" xmlns:xlink="http://www.w3.org/1999/xlink">
    <!-- Generator: Sketch 39.1 (31720) - http://www.bohemiancoding.com/sketch -->
    <title>文库</title>
    <desc>Created with Sketch.</desc>
    <defs></defs>
    <g id="飞地1.0" stroke="none" stroke-width="1" fill="none" fill-rule="evenodd">
        <g id="discover" transform="translate(-69.000000, -126.000000)">
            <g id="文库" transform="translate(63.000000, 117.000000)">
                <g>
                    <rect id="Rectangle-200" stroke="#000000" stroke-width="2" fill="#FFFFFF" x="7" y="10" width="7" height="39"></rect>
                    <rect id="Rectangle-200-Copy-2" stroke="#000000" stroke-width="2" fill="#FFFFFF" x="20" y="22" width="6" height="27"></rect>
                    <rect id="Rectangle-200-Copy-4" stroke="#000000" stroke-width="2" fill="#FFFFFF" transform="translate(44.801891, 35.390560) rotate(-27.000000) translate(-44.801891, -35.390560) " x="41.8018913" y="21.8905596" width="6" height="27"></rect>
                    <rect id="Rectangle-200-Copy" stroke="#000000" stroke-width="2" fill="#FFFFFF" x="14" y="15" width="6" height="34"></rect>
                    <rect id="Rectangle-200-Copy" fill-opacity="0.500679348" fill="#000000" x="15" y="25" width="4" height="19"></rect>
                    <rect id="Rectangle-200-Copy-3" stroke="#000000" stroke-width="2" fill="#FFFFFF" transform="translate(36.390858, 32.509082) rotate(-27.000000) translate(-36.390858, -32.509082) " x="33.3908581" y="15.5090824" width="6" height="34"></rect>
                    <rect id="Rectangle-53" fill="#000000" x="9" y="15" width="2" height="2"></rect>
                    <rect id="Rectangle-58" fill="#000000" transform="translate(31.344997, 21.344997) rotate(-27.000000) translate(-31.344997, -21.344997) " x="30.344997" y="20.344997" width="2" height="2"></rect>
                    <rect id="Rectangle-58-Copy" fill="#000000" transform="translate(33.344997, 25.344997) rotate(-27.000000) translate(-33.344997, -25.344997) " x="32.344997" y="24.344997" width="2" height="2"></rect>
                    <rect id="Rectangle-53-Copy" fill="#000000" x="9" y="18" width="2" height="2"></rect>
                    <rect id="Rectangle-53-Copy-2" fill="#000000" x="9" y="21" width="2" height="2"></rect>
                    <rect id="Rectangle-53-Copy-3" fill="#000000" x="9" y="24" width="2" height="2"></rect>
                </g>
            </g>
        </g>
    </g>
</svg>