<?xml version="1.0" encoding="UTF-8" standalone="no"?>
<svg width="56px" height="40px" viewBox="0 0 56 40" version="1.1" xmlns="http://www.w3.org/2000/svg" xmlns:xlink="http://www.w3.org/1999/xlink">
    <!-- Generator: Sketch 39.1 (31720) - http://www.bohemiancoding.com/sketch -->
    <title>良品</title>
    <desc>Created with Sketch.</desc>
    <defs></defs>
    <g id="飞地1.0" stroke="none" stroke-width="1" fill="none" fill-rule="evenodd">
        <g id="discover" transform="translate(-253.000000, -316.000000)" fill="#0A0B09">
            <g id="良品" transform="translate(252.000000, 306.000000)">
                <g id="Fill-88">
                    <path d="M55.1333333,20.994152 C55.1333333,22.8 54.1197333,24.7368421 51.8918667,24.7368421 C49.6649333,24.7368421 48.6476,22.8 48.6476,20.994152 C48.6476,20.4795322 48.2313333,20.0584795 47.7142667,20.0584795 C47.2,20.0584795 46.7809333,20.4795322 46.7809333,20.994152 C46.7809333,23.0619883 45.1074667,24.7368421 43.0476,24.7368421 C40.9914667,24.7368421 39.3142667,23.0619883 39.3142667,20.994152 C39.3142667,20.4795322 38.898,20.0584795 38.3809333,20.0584795 C37.8666667,20.0584795 37.4476,20.4795322 37.4476,20.994152 C37.4476,23.0619883 35.7741333,24.7368421 33.7142667,24.7368421 C31.6544,24.7368421 29.9772,23.0619883 29.9772,20.994152 C29.9772,20.4795322 29.5618667,20.0584795 29.0438667,20.0584795 C28.5296,20.0584795 28.1105333,20.4795322 28.1105333,20.994152 C28.1105333,23.0619883 26.4333333,24.7368421 24.3734667,24.7368421 C22.3098667,24.7368421 20.6326667,23.0619883 20.6326667,20.994152 C20.6326667,20.4795322 20.2136,20.0584795 19.6993333,20.0584795 C19.1813333,20.0584795 18.766,20.4795322 18.766,20.994152 C18.766,23.0619883 17.0813333,24.7368421 15.0149333,24.7368421 C12.9364,24.7368421 11.2452,23.0619883 11.2452,20.994152 C11.2452,20.4795322 10.8289333,20.0584795 10.3118667,20.0584795 C9.7976,20.0584795 9.37853333,20.4795322 9.37853333,20.994152 C9.37853333,23.0619883 7.67146667,24.7368421 5.5752,24.7368421 C4.13133333,24.7368421 2.86666667,22.9871345 2.86666667,20.994152 L2.86666667,20.1146199 L8.4704,11.871345 L49.5548,11.871345 L55.1333333,20.1146199 L55.1333333,20.994152 L55.1333333,20.994152 Z M12.2,41.8128655 L12.2,25.8502924 C13.0297333,26.3274854 13.9882667,26.6081871 15.0149333,26.6081871 C16.9684,26.6081871 18.6894667,25.6070175 19.6993333,24.0912281 C20.7017333,25.6070175 22.4228,26.6081871 24.3734667,26.6081871 C26.3204,26.6081871 28.0414667,25.6070175 29.0438667,24.0912281 C30.05,25.6070175 31.7673333,26.6081871 33.7142667,26.6081871 C35.6612,26.6081871 37.3785333,25.6070175 38.3809333,24.0912281 C39.3870667,25.6070175 41.1044,26.6081871 43.0476,26.6081871 C44.0481333,26.6081871 44.9861333,26.3368421 45.8,25.8783626 L45.8,41.8128655 L12.2,41.8128655 L12.2,41.8128655 Z M51.4,47.4269006 L6.6,47.4269006 L6.6,26.5052632 C8.14373333,26.2245614 9.47466667,25.3356725 10.3081333,24.0818713 C10.3809333,24.194152 10.4658667,24.297076 10.5470667,24.4 C10.4201333,24.5590643 10.3333333,24.7461988 10.3333333,24.9707602 L10.3333333,42.748538 C10.3333333,43.2631579 10.7486667,43.6842105 11.2666667,43.6842105 L46.7333333,43.6842105 C47.2476,43.6842105 47.6666667,43.2631579 47.6666667,42.748538 L47.6666667,24.9707602 C47.6666667,24.7649123 47.5845333,24.5777778 47.4688,24.4187135 C47.522,24.3532164 47.5808,24.2877193 47.6302667,24.2222222 C48.4385333,25.5602339 49.7778667,26.4304094 51.4,26.580117 L51.4,47.4269006 L51.4,47.4269006 Z M50.8204,10.4116959 C50.6449333,10.1497076 50.3574667,10 50.0476,10 L38.3333333,10 L19.6666667,10 L7.9748,10 C7.66866667,10 7.37653333,10.1497076 7.2048,10.4116959 L1.16053333,19.3005848 C1.05506667,19.4502924 1,19.6374269 1,19.8245614 L1,20.994152 C1,23.6888889 2.638,26 4.73333333,26.5052632 L4.73333333,48.3625731 C4.73333333,48.877193 5.14866667,49.2982456 5.66666667,49.2982456 L52.3333333,49.2982456 C52.8476,49.2982456 53.2666667,48.877193 53.2666667,48.3625731 L53.2666667,26.4210526 C55.4926667,25.8128655 57,23.7169591 57,20.994152 L57,19.8245614 C57,19.6374269 56.9421333,19.4502924 56.8394667,19.3005848 L50.8204,10.4116959 Z"></path>
                </g>
            </g>
        </g>
    </g>
</svg>