<?xml version="1.0" encoding="UTF-8" standalone="no"?>
<svg width="46px" height="36px" viewBox="0 0 46 36" version="1.1" xmlns="http://www.w3.org/2000/svg" xmlns:xlink="http://www.w3.org/1999/xlink">
    <!-- Generator: Sketch 39.1 (31720) - http://www.bohemiancoding.com/sketch -->
    <title>影像</title>
    <desc>Created with Sketch.</desc>
    <defs></defs>
    <g id="飞地1.0" stroke="none" stroke-width="1" fill="none" fill-rule="evenodd">
        <g id="discover" transform="translate(-259.000000, -128.000000)" fill="#000000">
            <g id="影像" transform="translate(252.000000, 116.000000)">
                <g id="23.-Videos">
                    <path d="M27,36 C27.24,36 27.449,35.905 27.621,35.765 L35.596,30.783 C35.836,30.6 36,30.325 36,30 C36,29.566 35.721,29.206 35.334,29.067 L27.564,24.195 C27.4,24.081 27.214,23.999 27,23.999 C26.447,23.999 26,24.447 26,24.999 L26,34.999 C26,35.552 26.447,36 27,36 L27,36 Z M49,12 L11,12 C8.791,12 7,13.791 7,16 L7,44 C7,46.209 8.791,48 11,48 L49,48 C51.209,48 53,46.209 53,44 L53,16 C53,13.791 51.209,12 49,12 L49,12 Z M31,14 L40,14 L40,18 L31,18 L31,14 L31,14 Z M20,14 L29,14 L29,18 L20,18 L20,14 L20,14 Z M9,16 C9,14.896 9.896,14 11,14 L18,14 L18,18 L9,18 L9,16 L9,16 Z M18,46 L11,46 C9.896,46 9,45.105 9,44 L9,42 L18,42 L18,46 L18,46 Z M29,46 L20,46 L20,42 L29,42 L29,46 L29,46 Z M40,46 L31,46 L31,42 L40,42 L40,46 L40,46 Z M51,44 C51,45.105 50.105,46 49,46 L42,46 L42,42 L51,42 L51,44 L51,44 Z M51,40 L9,40 L9,20 L51,20 L51,40 L51,40 Z M51,18 L42,18 L42,14 L49,14 C50.105,14 51,14.896 51,16 L51,18 L51,18 Z"></path>
                </g>
            </g>
        </g>
    </g>
</svg>