<?xml version="1.0" encoding="UTF-8" standalone="no"?>
<svg width="20px" height="20px" viewBox="0 0 20 20" version="1.1" xmlns="http://www.w3.org/2000/svg" xmlns:xlink="http://www.w3.org/1999/xlink">
    <!-- Generator: Sketch 39.1 (31720) - http://www.bohemiancoding.com/sketch -->
    <title>like</title>
    <desc>Created with Sketch.</desc>
    <defs></defs>
    <g id="Symbols" stroke="none" stroke-width="1" fill="none" fill-rule="evenodd">
        <g id="like" fill="#0A0B09">
            <path d="M17.0885437,11.3118934 L14.5683219,11.3118934 C14.4166824,11.3118934 14.2950975,11.4340247 14.2950975,11.5851178 C14.2950975,11.7362109 14.4166824,11.8583422 14.5683219,11.8583422 L16.9934616,11.8583422 C17.029254,12.037031 16.9991993,12.2848455 16.9024779,12.5381245 C16.7642263,12.9017861 16.464226,13.3383987 16.0371762,13.4976885 L14.5683219,13.4976885 C14.4166824,13.4976885 14.2950975,13.6198198 14.2950975,13.7709129 C14.2950975,13.922006 14.4166824,14.0441373 14.5683219,14.0441373 L15.8675039,14.0441373 C15.9166843,14.4088919 15.8563017,14.8791111 15.5961921,15.2228273 C15.3644978,15.5282922 15.00794,15.6834837 14.5363547,15.6834837 L8.94372463,15.6834837 C8.65028164,15.6834837 8.50410659,15.6476913 8.40383324,15.5512431 C8.33443425,15.4840299 8.25847786,15.3894942 8.17733022,15.2897673 C7.90957032,14.961898 7.60738414,14.5905861 7.20847654,14.5905861 L6.91803901,14.5905861 L6.91803901,9.67200064 C7.46722003,9.66899517 7.98416058,9.42336644 8.3439971,8.99003256 C8.38334141,8.94194507 8.4123032,8.90779202 8.44946171,8.87855701 C9.55110245,8.01188925 10.2705023,7.06352739 10.6502842,5.97964624 C10.7123061,5.79986459 10.7431805,5.60095724 10.7431805,5.3709023 L10.7431805,3.86161077 C11.1082082,3.53783987 11.5691378,3.45341353 11.9172257,3.65833183 C12.4658602,3.97964371 12.8319809,5.06243196 12.217226,7.13565863 C12.1926358,7.21844562 12.2084829,7.30806322 12.259849,7.37691577 C12.310942,7.44631476 12.3920897,7.48675197 12.4787018,7.48675197 L16.175701,7.48675197 C17.0464671,7.48675197 17.3560304,7.74330967 17.3560304,8.46708108 C17.3560304,9.12609831 17.316686,9.12609831 17.1841722,9.12609831 L14.5683219,9.12609831 C14.4166824,9.12609831 14.2950975,9.24822961 14.2950975,9.3993227 C14.2950975,9.55041578 14.4166824,9.67254709 14.5683219,9.67254709 L17.1177787,9.67254709 C17.2931888,9.77036142 17.4180523,10.0083399 17.4478338,10.3107993 C17.4778884,10.6250073 17.3972872,11.0621663 17.0885437,11.3118934 L17.0885437,11.3118934 Z M2.54644878,9.12609831 L6.37159023,9.12609831 L6.37159023,15.1370349 L2.54644878,15.1370349 L2.54644878,9.12609831 Z M17.9910038,10.258067 C17.9612224,9.94631792 17.8587632,9.67527933 17.7019324,9.47145394 C17.9024791,9.23702741 17.9024791,8.83620723 17.9024791,8.46708108 C17.9024791,7.09877334 16.9164123,6.94030319 16.175701,6.94030319 L12.8382651,6.94030319 C13.3120362,5.09603856 13.0795222,3.70641932 12.1937287,3.18729298 C11.5991925,2.83811221 10.8286997,2.98647305 10.2735077,3.55477978 C10.2246006,3.60559952 10.1967317,3.67390562 10.1967317,3.74549041 L10.1967317,5.3709023 C10.1967317,5.53838885 10.1765131,5.67937263 10.1338901,5.79986459 C9.79017379,6.78183305 9.12842432,7.64850081 8.11230282,8.44795537 C8.02896938,8.51352923 7.97131903,8.58238177 7.91804028,8.64740918 C7.66831318,8.94932213 7.30410507,9.12254639 6.91803901,9.12555186 L6.91803901,8.85287392 C6.91803901,8.70178083 6.79536126,8.57964953 6.64481462,8.57964953 L2.27322439,8.57964953 C2.12158485,8.57964953 2,8.70178083 2,8.85287392 L2,15.4102593 C2,15.5613524 2.12158485,15.6834837 2.27322439,15.6834837 L6.64481462,15.6834837 C6.79536126,15.6834837 6.91803901,15.5613524 6.91803901,15.4102593 L6.91803901,15.1370349 L7.20847654,15.1370349 C7.3480942,15.1370349 7.60219288,15.4487839 7.75383242,15.6348497 C7.84973418,15.7539755 7.94153757,15.8649046 8.02487101,15.9449594 C8.28525385,16.1952329 8.62022696,16.2299324 8.94372463,16.2299324 L14.5363547,16.2299324 C15.3475579,16.2299324 15.7967388,15.861626 16.0314385,15.5526092 C16.3915483,15.0771987 16.4767943,14.4501488 16.4071221,13.9545197 C16.4175046,13.9433175 16.424062,13.9296563 16.4325319,13.917088 C16.9188713,13.6509674 17.2535712,13.1528794 17.4136807,12.7329335 C17.5522055,12.3679057 17.5858121,12.0209107 17.5235169,11.7337519 C17.5483803,11.6971398 17.5645006,11.6558829 17.5688722,11.6094348 C17.8781622,11.2752814 18.0412771,10.7766468 17.9910038,10.258067 L17.9910038,10.258067 Z" id="Fill-53"></path>
        </g>
    </g>
</svg>