<?xml version="1.0" encoding="UTF-8" standalone="no"?>
<svg width="110px" height="44px" viewBox="0 0 110 44" version="1.1" xmlns="http://www.w3.org/2000/svg" xmlns:xlink="http://www.w3.org/1999/xlink">
    <!-- Generator: Sketch 39.1 (31720) - http://www.bohemiancoding.com/sketch -->
    <title>Page 1</title>
    <desc>Created with Sketch.</desc>
    <defs>
        <path d="M55.402556,3.78858182 L54.8607236,6.22409697 L53.3706876,13.9365697 C52.6933942,17.3192364 50.6615137,17.4545455 48.358711,17.7251636 L48.2232499,14.613103 C49.1714656,14.4778061 49.9842202,14.2071879 50.1196813,13.2600364 L51.3388072,7.03593939 L48.358711,7.71247273 L45.6495371,20.9725164 L41.9921596,20.9725164 L44.4304112,8.52431515 L41.8566984,9.06553939 L39.4184467,21.1078218 C39.2829856,22.0549685 39.824818,22.4608885 40.9084948,22.5961939 L46.0559204,22.5961939 C48.7650944,22.5961939 49.0360045,21.1078218 50.3905915,18.672303 L53.5061366,19.7547515 C52.1515497,22.5961939 51.0678849,25.5729382 47.4105074,25.5729382 L39.5539079,25.5729382 C36.5738117,25.5729382 35.3546858,24.2198727 35.7610692,21.6490485 L38.0638598,10.0126909 L36.1674404,10.4186061 L36.8447339,6.9006303 L38.7411533,6.49471515 L39.4184467,2.84144242 L43.0758243,2.84144242 L42.5339919,5.68287273 L45.1077047,5.14164848 L46.0559204,0.541224242 L49.713298,0.541224242 L48.9005434,4.32980606 L55.402556,2.97673939 L55.402556,3.78858182 L55.402556,3.78858182 Z M33.7291888,19.2135273 L33.1873564,21.9196618 L33.0518953,22.5961939 L26.0080503,24.0845661 L26.6853438,20.5665939 L29.9363501,19.8900606 L31.8327694,10.8245212 L28.5817631,11.5010545 L29.2590566,7.98309091 L32.5100629,7.30655758 L34.0000989,0 L37.6574885,0 L36.3029016,6.49471515 L35.8965303,8.38900606 L33.7291888,19.2135273 L33.7291888,19.2135273 Z M23.0279542,12.7188121 L20.4542413,16.2367879 C18.557822,15.0190303 16.6614027,13.6659636 14.4940733,12.5835152 C14.3586121,15.6955636 13.6813187,21.3784352 16.9323249,21.7843552 C19.0996544,22.0549685 20.3187924,18.8076121 20.9960858,17.3192364 L23.9761699,18.2663879 C22.6215829,21.2431285 20.7251636,25.3023261 16.9323249,25.3023261 C13.2749353,25.3023261 11.1076058,23.4080339 10.5657735,19.4841455 C10.1593901,16.5073939 10.7012225,11.3657455 12.3267317,3.65327273 L0,3.65327273 L0.677293483,0.135309091 L16.7968638,0.135309091 L15.4422769,6.76533333 L22.6215829,0.947151515 L25.1952957,4.19450909 L17.4741573,9.47145455 L23.0279542,12.7188121 L23.0279542,12.7188121 Z" id="path-1"></path>
    </defs>
    <g id="Page-1" stroke="none" stroke-width="1" fill="none" fill-rule="evenodd">
        <g id="填写手机号" transform="translate(-131.000000, -85.000000)">
            <g id="Page-1" transform="translate(133.000000, 87.000000)">
                <polygon id="Stroke-1" stroke="#FFFFFF" stroke-width="3" points="31.5738971 40 40.0449438 18.1132121 40.0449438 0 21.5626611 0 0 9.05660364 0 40"></polygon>
                <g id="Group-5" transform="translate(52.179775, 7.272727)">
                    <mask id="mask-2" fill="white">
                        <use xlink:href="#path-1"></use>
                    </mask>
                    <g id="Clip-4"></g>
                    <polygon id="Fill-3" fill="#FFFFFF" mask="url(#mask-2)" points="-6.06741573 -6.06060606 61.4699717 -6.06060606 61.4699717 31.6335447 -6.06741573 31.6335447"></polygon>
                </g>
            </g>
        </g>
    </g>
</svg>