<?xml version="1.0" encoding="UTF-8" standalone="no"?>
<svg width="40px" height="45px" viewBox="0 0 40 45" version="1.1" xmlns="http://www.w3.org/2000/svg" xmlns:xlink="http://www.w3.org/1999/xlink">
    <!-- Generator: Sketch 39.1 (31720) - http://www.bohemiancoding.com/sketch -->
    <title>message</title>
    <desc>Created with Sketch.</desc>
    <defs></defs>
    <g id="飞地1.0" stroke="none" stroke-width="1" fill="none" fill-rule="evenodd">
        <g id="drawer" transform="translate(-44.000000, -207.000000)">
            <g id="消息">
                <g transform="translate(39.000000, 204.000000)">
                    <g id="message">
                        <path d="M23.0347302,6.14742291 C16.7875549,7.09375126 12,12.4819073 12,18.9946318 L12,26 C11.9999999,29.1194392 5,37.4211025 5,37.4211025 L5,42 L45,42 L45,37.4211025 C45,37.4211025 38,29.8469278 38,26 C37.9999998,19.3333333 37.9999999,19.0047427 37.9999999,19.0047427 C38,12.5316159 33.2736483,7.16308998 27.0831299,6.16600816 L27.0831299,5 C27.0831299,3.8954305 26.1935787,3 25.0771002,3 L25.1689721,3 C24.0610725,3 23.1267802,3.88772964 23.0814712,5 L23.0347302,6.14742291 Z M25,8 C18.9248678,8 14,12.9333984 13.9999999,18.9999744 C13.9999999,18.9999744 13.9999999,23.6959872 14,26.0488834 C14,30.001215 6.95532227,38.0231323 6.95532227,38.0231323 L6.95532227,40 L43.035646,40 L43.035646,38.0231323 C43.035646,38.0231323 36,30.5011635 36,26.0488834 C35.9999997,19.9800277 35.9999999,19.0091057 35.9999999,19.0091057 C35.9999999,12.9289445 31.076468,8 25,8 Z" id="Combined-Shape" fill="#FFFFFF" fill-rule="evenodd"></path>
                        <path d="M21.4115936,43.1378962 C21.4115936,45.7775244 22.7201154,46.9999999 25.0026626,46.9999999 C27.2852098,46.9999999 28.5872365,45.3928716 28.5872365,43.2921985" id="Path-41" stroke="#FFFFFF" stroke-width="2"></path>
                    </g>
                </g>
            </g>
        </g>
    </g>
</svg>