<?xml version="1.0" encoding="UTF-8" standalone="no"?>
<svg width="25px" height="25px" viewBox="0 0 25 25" version="1.1" xmlns="http://www.w3.org/2000/svg" xmlns:xlink="http://www.w3.org/1999/xlink">
    <!-- Generator: Sketch 39.1 (31720) - http://www.bohemiancoding.com/sketch -->
    <title>pause</title>
    <desc>Created with Sketch.</desc>
    <defs></defs>
    <g id="Symbols" stroke="none" stroke-width="1" fill="none" fill-rule="evenodd">
        <g id="pause">
            <g id="Shape">
                <polygon points="0 0 25 0 25 25 0 25"></polygon>
                <path d="M10.5,19.5 C10.5,19.5 10.3476098,16.063946 10.3476098,12.5426307 C10.3476098,9.02131533 10.5,5.5 10.5,5.5 L6.5,5.5 C6.5,5.5 6.68213083,9.06251637 6.68213083,12.5426307 C6.68213083,16.022745 6.5,19.5 6.5,19.5 L10.5,19.5 Z M14.671271,12.5 C14.671271,15.9498875 14.5,19.5 14.5,19.5 L18.5,19.5 C18.5,19.5 18.3370223,16.0055892 18.3370223,12.5 C18.3370223,8.99441078 18.5,5.5 18.5,5.5 L14.5,5.5 C14.5,5.5 14.671271,9.05011252 14.671271,12.5 Z" fill="#000000"></path>
            </g>
        </g>
    </g>
</svg>