<?xml version="1.0" encoding="UTF-8" standalone="no"?>
<svg width="50px" height="50px" viewBox="0 0 50 50" version="1.1" xmlns="http://www.w3.org/2000/svg" xmlns:xlink="http://www.w3.org/1999/xlink">
    <!-- Generator: Sketch 39.1 (31720) - http://www.bohemiancoding.com/sketch -->
    <title>QQ L</title>
    <desc>Created with Sketch.</desc>
    <defs></defs>
    <g id="登录注册" stroke="none" stroke-width="1" fill="none" fill-rule="evenodd">
        <g id="登录" transform="translate(-125.000000, -541.000000)" fill="#FFFFFF">
            <g id="第三方登录" transform="translate(50.000000, 504.000000)">
                <path d="M100,87 C113.807119,87 125,75.8071194 125,62 C125,48.1928806 113.807119,37 100,37 C86.1928806,37 75,48.1928806 75,62 C75,75.8071194 86.1928806,87 100,87 Z M100,85 C112.70255,85 123,74.7025499 123,62 C123,49.2974501 112.70255,39 100,39 C87.2974501,39 77,49.2974501 77,62 C77,74.7025499 87.2974501,85 100,85 Z M88.1596849,57.1511068 C87.9904778,57.6036478 88.2385622,57.8901477 88.1596849,59.6130934 C88.1384689,60.076522 86.1637295,62.1742267 85.3800299,64.3529396 C84.6025753,66.5142904 84.4955942,68.7721596 85.6958997,69.6595554 C86.8962053,70.5469513 88.0136514,66.705727 88.1596849,67.2646465 C88.2233964,67.5084921 88.3028472,67.7621756 88.3984798,68.0228035 C88.7826035,69.0696579 89.4277976,70.2285502 90.3627425,71.3119703 C90.5526688,71.5320581 89.2058403,71.936779 88.3984797,73.3266068 C87.5911191,74.7164345 88.6297918,77.2433936 92.6450374,77.2433929 C97.8253038,77.2433929 98.983191,75.4003103 99.0887831,75.4083862 C99.4744993,75.4378867 99.5011564,75.4083866 99.9100449,75.4083867 C100.410279,75.4083868 100.203307,75.4490826 100.668133,75.4083862 C100.919165,75.3864079 103.436815,77.6141932 106.922356,77.2433929 C112.860711,76.6116562 111.952629,74.597665 111.486501,73.3266068 C111.000001,72 109.279746,71.3783759 109.355685,71.293448 C110.778228,69.702508 111.00364,68.7257712 111.4865,67.2646469 C111.684996,66.6640044 113.062935,70.5692002 114.12419,69.6595554 C114.566409,69.2805119 115.450844,67.7011604 114.566409,64.3529396 C113.681973,61.0047188 111.971895,60.2409315 112.00905,59.6130932 C112.086383,58.3063686 112.041484,57.388745 111.976275,57.1511068 C111.660405,56 111,56.2541683 111,56 C111,49.3725827 106.075133,44 100,44 C93.9248675,44 89,49.3725827 89,56 C89,56.5260302 88.5387288,56.1373615 88.1596849,57.1511068 Z" id="QQ-L"></path>
            </g>
        </g>
    </g>
</svg>