<?xml version="1.0" encoding="UTF-8" standalone="no"?>
<svg width="28px" height="28px" viewBox="0 0 28 28" version="1.1" xmlns="http://www.w3.org/2000/svg" xmlns:xlink="http://www.w3.org/1999/xlink">
    <!-- Generator: Sketch 39.1 (31720) - http://www.bohemiancoding.com/sketch -->
    <title>frontpage / select</title>
    <desc>Created with Sketch.</desc>
    <defs></defs>
    <g id="飞地1.0" stroke="none" stroke-width="1" fill="none" fill-rule="evenodd">
        <g id="homepage" transform="translate(-124.000000, -27.000000)" fill="#000000">
            <g id="header">
                <g id="frontpage-/-select" transform="translate(123.000000, 26.000000)">
                    <path d="M14.9962446,4.00947026 L4.48660767,12.5690402 L4.48660767,28.9872897 L12.1116599,28.9872897 L12.1116605,22.0298861 C12.1116605,22.0298861 12.0310507,18.4779881 14.9962441,18.4779877 C17.9614374,18.4779877 17.9614374,22.0298861 17.9614374,22.0298861 L17.9614369,28.9872897 L25.5387121,28.9872897 L25.5387127,12.5690402 L14.9962446,4.00947026 Z M29,12.7345206 L14.9962441,1 L1.03450295,12.7345206 L1.03450295,14.1806281 L14.996244,2.68626425 L29,14.1806281 L29,12.7345206 Z M21.4146322,1.16920848 L20.8340427,1.16920848 L20.8340427,2.32182684 L21.4146322,2.32182682 L21.4146322,5.0415503 L23.7485915,7.03488144 L23.7485915,2.32182684 L24.3702089,2.32182684 L24.3702089,1.16920848 L23.7485917,1.16920848 L21.4146322,1.16920848 Z" id="home-F"></path>
                </g>
            </g>
        </g>
    </g>
</svg>