<?xml version="1.0" encoding="UTF-8" standalone="no"?>
<svg width="44px" height="43px" viewBox="0 0 44 43" version="1.1" xmlns="http://www.w3.org/2000/svg" xmlns:xlink="http://www.w3.org/1999/xlink">
    <!-- Generator: Sketch 39.1 (31720) - http://www.bohemiancoding.com/sketch -->
    <title>setting</title>
    <desc>Created with Sketch.</desc>
    <defs></defs>
    <g id="飞地1.0" stroke="none" stroke-width="1" fill="none" fill-rule="evenodd">
        <g id="drawer" transform="translate(-41.000000, -557.000000)" fill="#FFFFFF">
            <g id="设置">
                <g transform="translate(38.000000, 553.000000)">
                    <g id="setting">
                        <path d="M44.09,22.066 L41.289,22.066 C40.97,22.066 40.582,21.778 40.466,21.399 L38.818,17.403 C38.67,17.132 38.737,16.651 38.957,16.432 L40.932,14.455 C41.299,14.092 41.5,13.607 41.5,13.092 C41.5,12.575 41.299,12.091 40.935,11.729 L38.658,9.444 C37.933,8.727 36.668,8.724 35.935,9.448 L33.959,11.431 C33.745,11.643 33.371,11.776 32.903,11.535 L28.91,9.896 C28.609,9.807 28.326,9.42 28.326,9.1 L28.326,6.298 C28.326,5.234 27.458,4.368 26.392,4.368 L23.178,4.368 C22.116,4.368 21.252,5.234 21.252,6.298 L21.252,9.1 C21.252,9.412 20.957,9.807 20.584,9.921 L16.59,11.571 C16.329,11.715 15.829,11.643 15.617,11.433 L13.635,9.449 C12.908,8.727 11.639,8.727 10.912,9.451 L8.635,11.727 C8.269,12.091 8.068,12.575 8.068,13.092 C8.068,13.607 8.269,14.092 8.633,14.453 L10.613,16.434 C10.833,16.652 10.903,17.133 10.719,17.479 L9.082,21.471 C8.991,21.771 8.598,22.066 8.287,22.066 L5.482,22.066 C4.42,22.066 3.557,22.932 3.557,23.995 L3.557,27.212 C3.557,28.274 4.42,29.14 5.482,29.14 L8.287,29.14 C8.598,29.14 8.991,29.434 9.107,29.804 L10.754,33.798 C10.906,34.075 10.838,34.548 10.613,34.771 L8.635,36.748 C8.269,37.112 8.068,37.598 8.068,38.116 C8.068,38.634 8.271,39.118 8.633,39.477 L10.914,41.762 C11.646,42.477 12.91,42.476 13.637,41.753 L15.617,39.771 C15.826,39.562 16.199,39.43 16.666,39.672 L20.656,41.309 C20.957,41.397 21.252,41.791 21.252,42.104 L21.252,44.905 C21.252,45.97 22.116,46.835 23.178,46.835 L26.392,46.835 C27.458,46.835 28.326,45.97 28.326,44.905 L28.326,42.104 C28.326,41.784 28.609,41.397 28.984,41.283 L32.981,39.636 C33.24,39.492 33.748,39.563 33.957,39.771 L35.935,41.756 C36.66,42.481 37.935,42.482 38.662,41.756 L40.932,39.48 C41.297,39.118 41.5,38.634 41.5,38.116 C41.5,37.598 41.299,37.112 40.934,36.75 L38.955,34.774 C38.737,34.555 38.67,34.071 38.855,33.723 L40.492,29.731 C40.582,29.428 40.97,29.14 41.289,29.14 L44.09,29.14 C45.152,29.14 46.018,28.274 46.018,27.212 L46.018,23.995 C46.018,22.932 45.152,22.066 44.09,22.066 L44.09,22.066 L44.09,22.066 Z M44.517,27.212 C44.517,27.443 44.32,27.64 44.09,27.64 L41.289,27.64 C40.312,27.64 39.33,28.372 39.08,29.233 L37.504,33.077 C37.037,33.929 37.204,35.138 37.892,35.833 L39.875,37.812 C39.984,37.92 40,38.048 40,38.115 C40,38.182 39.983,38.309 39.873,38.418 L37.6,40.695 C37.386,40.909 37.211,40.908 36.998,40.696 L35.017,38.71 C34.6,38.293 33.99,38.054 33.346,38.054 C32.953,38.054 32.576,38.146 32.334,38.284 L28.486,39.87 C27.555,40.146 26.826,41.127 26.826,42.104 L26.826,44.905 C26.826,45.139 26.627,45.335 26.392,45.335 L23.178,45.335 C22.943,45.335 22.752,45.143 22.752,44.905 L22.752,42.104 C22.752,41.128 22.018,40.146 21.153,39.896 L17.312,38.321 C16.994,38.146 16.617,38.054 16.225,38.054 C15.583,38.054 14.975,38.293 14.558,38.711 L12.579,40.69 C12.416,40.851 12.121,40.845 11.969,40.696 L9.691,38.415 C9.584,38.309 9.568,38.182 9.568,38.115 C9.568,38.048 9.584,37.92 9.694,37.812 L11.675,35.833 C12.363,35.144 12.537,33.934 12.105,33.152 L10.519,29.304 C10.24,28.371 9.26,27.64 8.287,27.64 L5.482,27.64 C5.252,27.64 5.057,27.443 5.057,27.212 L5.057,23.995 C5.057,23.763 5.252,23.566 5.482,23.566 L8.287,23.566 C9.26,23.566 10.24,22.834 10.494,21.97 L12.068,18.126 C12.539,17.271 12.365,16.06 11.672,15.371 L9.691,13.391 C9.611,13.312 9.568,13.205 9.568,13.091 C9.568,12.977 9.611,12.87 9.694,12.789 L11.972,10.513 C12.133,10.354 12.42,10.356 12.576,10.512 L14.558,12.493 C14.977,12.912 15.586,13.152 16.23,13.152 C16.62,13.152 16.995,13.06 17.236,12.922 L21.08,11.334 C22.018,11.058 22.752,10.076 22.752,9.1 L22.752,6.298 C22.752,6.062 22.943,5.868 23.178,5.868 L26.392,5.868 C26.627,5.868 26.826,6.065 26.826,6.298 L26.826,9.1 C26.826,10.078 27.555,11.06 28.413,11.308 L32.258,12.886 C33.096,13.346 34.34,13.168 35.019,12.492 L36.994,10.511 C37.153,10.352 37.446,10.356 37.6,10.507 L39.875,12.79 C39.955,12.87 40,12.977 40,13.091 C40,13.205 39.955,13.312 39.874,13.393 L37.898,15.371 C37.207,16.06 37.033,17.271 37.469,18.05 L39.054,21.897 C39.329,22.833 40.312,23.566 41.289,23.566 L44.09,23.566 C44.32,23.566 44.517,23.763 44.517,23.995 L44.517,27.212 L44.517,27.212 L44.517,27.212 Z M24.787,19.73 C21.55,19.73 18.916,22.364 18.916,25.602 C18.916,28.84 21.55,31.473 24.787,31.473 C28.023,31.473 30.656,28.84 30.656,25.602 C30.656,22.364 28.023,19.73 24.787,19.73 L24.787,19.73 L24.787,19.73 Z M24.787,29.973 C22.377,29.973 20.416,28.013 20.416,25.602 C20.416,23.191 22.377,21.23 24.787,21.23 C27.195,21.23 29.156,23.191 29.156,25.602 C29.156,28.013 27.195,29.973 24.787,29.973 L24.787,29.973 L24.787,29.973 Z" id="Fill-185"></path>
                    </g>
                </g>
            </g>
        </g>
    </g>
</svg>