<?xml version="1.0" encoding="UTF-8" standalone="no"?>
<svg width="25px" height="25px" viewBox="0 0 25 25" version="1.1" xmlns="http://www.w3.org/2000/svg" xmlns:xlink="http://www.w3.org/1999/xlink">
    <!-- Generator: Sketch 39.1 (31720) - http://www.bohemiancoding.com/sketch -->
    <title>share</title>
    <desc>Created with Sketch.</desc>
    <defs></defs>
    <g id="Symbols" stroke="none" stroke-width="1" fill="none" fill-rule="evenodd">
        <g id="share">
            <g>
                <rect id="Rectangle-6" fill-opacity="0" fill="#FFFFFF" x="0" y="0" width="25" height="25"></rect>
                <path d="M12.0260578,3.63871529 C10.5777537,4.37448735 8.52798188,5.43699455 7.59070382,5.97892579 C7.51524756,6.03128008 7.21342253,5.97892579 7.06251001,5.90039436 C6.98705375,5.84804007 6.98705375,5.82186293 7.02478188,5.76950864 C8.04344137,5.06272577 11.1748761,2.89002287 12.3821762,2.07853143 C12.4576325,2.02617714 12.5330887,2 12.6462731,2 L12.6840012,2 C12.7594575,2 12.91037,2.02617714 13.0235544,2.07853143 C14.5326796,2.94237716 17.6641143,4.7747772 18.9468706,5.5600915 C18.9845988,5.58626864 18.9468706,5.61244578 18.9091425,5.63862293 C18.7205019,5.7433315 18.456405,5.82186293 18.3432206,5.76950864 C17.1520239,5.23340348 14.8619269,4.12545572 13.465592,3.5029334 C13.4021965,4.45769498 13.2733665,6.54126368 13.2733665,7.70639706 C13.2733665,9.49437228 13.5,13 13.5,13 L12,13 C12,13 12.135563,9.47614789 12.135563,7.70639706 C12.135563,6.58181042 12.065436,4.64028371 12.0260578,3.63871529 Z M9.66319639,7.91867048 C9.66319639,7.91867048 9.66478867,8.74308301 9.66478873,9.21827892 C7.75340143,8.97437436 4.34001383,9.04595011 4.34001383,9.04595011 C4.34001383,9.04595011 3.94410015,11.8412026 3.94410017,15.0049709 C3.94410019,18.1687391 4.27878111,21.9475119 4.27878111,21.9475119 L21.8433058,22.0286615 C21.8433058,22.0286615 22.1053174,18.0257395 22.1053181,14.9960049 C22.1053189,11.9662703 21.8191312,8.97437439 21.8191312,8.97437439 C21.8191312,8.97437439 17.8080366,8.78001059 16.4467308,9.17375304 L16.4467308,7.94613134 L23,7.94613134 L23,22.9366042 L3.08790901,22.9366042 L3.08790901,7.98954832 L9.66319639,7.91867048 Z" id="Combined-Shape" fill-opacity="0.699999988" fill="#000000"></path>
            </g>
        </g>
    </g>
</svg>