<?xml version="1.0" encoding="UTF-8"?>
<svg width="40px" height="40px" viewBox="0 0 40 40" version="1.1" xmlns="http://www.w3.org/2000/svg" xmlns:xlink="http://www.w3.org/1999/xlink">
    <!-- Generator: Sketch 40.3 (33839) - http://www.bohemiancoding.com/sketch -->
    <title>video</title>
    <desc>Created with Sketch.</desc>
    <defs></defs>
    <g id="Symbols" stroke="none" stroke-width="1" fill="none" fill-rule="evenodd">
        <g id="video" fill="#8B8687">
            <path d="M18.5586957,22.8333333 C18.674,22.8333333 18.7744109,22.7884722 18.8570457,22.7223611 L22.688513,20.36975 C22.8038174,20.2833333 22.8826087,20.1534722 22.8826087,20 C22.8826087,19.7950556 22.7485674,19.6250556 22.5626391,19.5594167 L18.8296609,17.25875 C18.7508696,17.2049167 18.6615087,17.1661944 18.5586957,17.1661944 C18.2930152,17.1661944 18.0782609,17.37775 18.0782609,17.6384167 L18.0782609,22.3606389 C18.0782609,22.6217778 18.2930152,22.8333333 18.5586957,22.8333333 L18.5586957,22.8333333 Z M29.1282609,11.5 L10.8717391,11.5 C9.8104587,11.5 8.95,12.34575 8.95,13.3888889 L8.95,26.6111111 C8.95,27.65425 9.8104587,28.5 10.8717391,28.5 L29.1282609,28.5 C30.1895413,28.5 31.05,27.65425 31.05,26.6111111 L31.05,13.3888889 C31.05,12.34575 30.1895413,11.5 29.1282609,11.5 L29.1282609,11.5 Z M20.4804348,12.4444444 L24.8043478,12.4444444 L24.8043478,14.3333333 L20.4804348,14.3333333 L20.4804348,12.4444444 L20.4804348,12.4444444 Z M15.1956522,12.4444444 L19.5195652,12.4444444 L19.5195652,14.3333333 L15.1956522,14.3333333 L15.1956522,12.4444444 L15.1956522,12.4444444 Z M9.91086957,13.3888889 C9.91086957,12.8675556 10.3413391,12.4444444 10.8717391,12.4444444 L14.2347826,12.4444444 L14.2347826,14.3333333 L9.91086957,14.3333333 L9.91086957,13.3888889 L9.91086957,13.3888889 Z M14.2347826,27.5555556 L10.8717391,27.5555556 C10.3413391,27.5555556 9.91086957,27.1329167 9.91086957,26.6111111 L9.91086957,25.6666667 L14.2347826,25.6666667 L14.2347826,27.5555556 L14.2347826,27.5555556 Z M19.5195652,27.5555556 L15.1956522,27.5555556 L15.1956522,25.6666667 L19.5195652,25.6666667 L19.5195652,27.5555556 L19.5195652,27.5555556 Z M24.8043478,27.5555556 L20.4804348,27.5555556 L20.4804348,25.6666667 L24.8043478,25.6666667 L24.8043478,27.5555556 L24.8043478,27.5555556 Z M30.0891304,26.6111111 C30.0891304,27.1329167 29.6591413,27.5555556 29.1282609,27.5555556 L25.7652174,27.5555556 L25.7652174,25.6666667 L30.0891304,25.6666667 L30.0891304,26.6111111 L30.0891304,26.6111111 Z M9.91086957,24.7222222 L9.91086957,15.2777778 L30.0891304,15.2777778 L30.0891304,24.7222222 L9.91086957,24.7222222 Z M30.0891304,14.3333333 L25.7652174,14.3333333 L25.7652174,12.4444444 L29.1282609,12.4444444 C29.6591413,12.4444444 30.0891304,12.8675556 30.0891304,13.3888889 L30.0891304,14.3333333 L30.0891304,14.3333333 Z" id="23.-Videos"></path>
        </g>
    </g>
</svg>