<?xml version="1.0" encoding="UTF-8"?>
<svg width="40px" height="40px" viewBox="0 0 40 40" version="1.1" xmlns="http://www.w3.org/2000/svg" xmlns:xlink="http://www.w3.org/1999/xlink">
    <!-- Generator: Sketch 40.3 (33839) - http://www.bohemiancoding.com/sketch -->
    <title>voice</title>
    <desc>Created with Sketch.</desc>
    <defs></defs>
    <g id="Symbols" stroke="none" stroke-width="1" fill="none" fill-rule="evenodd">
        <g id="voice" fill="#8B8687">
            <path d="M15.6831989,27.3678433 L15.6831989,17.0249932 L15.6831989,14.5127123 L27.6535954,10 L27.6535954,12.4832199 L27.6535954,24.0409878 L27.647784,24.0409878 C27.6516364,24.0761827 27.6535954,24.1125091 27.6535954,24.1499497 C27.6535954,25.0087326 26.6229552,26.128488 25.3515961,26.6509935 C24.0802369,27.1734991 23.0495967,26.9008924 23.0495967,26.0421096 C23.0495967,25.1833267 24.0802369,24.0635713 25.3515961,23.5410657 C25.8698249,23.3280831 26.3480577,23.2472102 26.7327956,23.2842966 L26.7327956,14.8844057 L16.6039986,18.7028546 L16.6039986,28.1245344 L16.5981872,28.1245344 C16.6020397,28.1597293 16.6039986,28.1960558 16.6039986,28.2334963 C16.6039986,29.0922792 15.5733585,30.2120346 14.3019993,30.7345401 C13.0306401,31.2570457 12,30.9844391 12,30.1256562 C12,29.2668733 13.0306401,28.1471179 14.3019993,27.6246123 C14.8202281,27.4116297 15.2984609,27.3307569 15.6831989,27.3678433 Z M26.7471829,12.968501 L16.6295102,16.8340871 L16.6295102,17.9585142 L26.7471829,14.1353078 L26.7471829,12.968501 Z" id="Combined-Shape"></path>
        </g>
    </g>
</svg>