<?xml version="1.0" encoding="UTF-8" standalone="no"?>
<svg width="50px" height="50px" viewBox="0 0 50 50" version="1.1" xmlns="http://www.w3.org/2000/svg" xmlns:xlink="http://www.w3.org/1999/xlink">
    <!-- Generator: Sketch 39.1 (31720) - http://www.bohemiancoding.com/sketch -->
    <title>sina weibo L</title>
    <desc>Created with Sketch.</desc>
    <defs></defs>
    <g id="登录注册" stroke="none" stroke-width="1" fill="none" fill-rule="evenodd">
        <g id="登录" transform="translate(-200.000000, -541.000000)" fill="#FFFFFF">
            <g id="第三方登录" transform="translate(50.000000, 504.000000)">
                <path d="M175,87 C188.807119,87 200,75.8071194 200,62 C200,48.1928806 188.807119,37 175,37 C161.192881,37 150,48.1928806 150,62 C150,75.8071194 161.192881,87 175,87 Z M175,85 C187.70255,85 198,74.7025499 198,62 C198,49.2974501 187.70255,39 175,39 C162.29745,39 152,49.2974501 152,62 C152,74.7025499 162.29745,85 175,85 Z M172.5,75 C181.060414,75 187.933212,70.5228478 187.933212,65 C187.933212,60.334301 182.090445,60.334301 182.090445,60.0331268 C182.090445,59.7319527 185,57.0213909 182.090445,55.3348184 C179.180889,53.6482458 173.858948,56.2124566 174.018991,55.9371657 C176.307911,52 173.036296,50.756979 171.368663,50.756979 C167.39317,50.756979 157,59.4771522 157,65 C157,70.5228478 163.939586,75 172.5,75 Z M172.904625,71.9367424 C178.373725,71.1681106 182.402291,67.6631839 181.902681,64.108269 C181.40307,60.5533541 176.564475,58.2946257 171.095375,59.0632576 C165.626275,59.8318894 161.597709,63.3368161 162.097319,66.891731 C162.59693,70.4466459 167.435525,72.7053743 172.904625,71.9367424 Z M171.89381,70.9683706 C175.146637,70.3360852 177.356433,67.6260695 176.829528,64.9153808 C176.302624,62.204692 173.238547,60.5198134 169.98572,61.1520988 C166.732894,61.7843842 164.523098,64.4943999 165.050002,67.2050887 C165.576907,69.9157775 168.640984,71.6006561 171.89381,70.9683706 Z M172,66 C172.552285,66 173,65.5522848 173,65 C173,64.4477152 172.552285,64 172,64 C171.447715,64 171,64.4477152 171,65 C171,65.5522848 171.447715,66 172,66 Z M169.694162,68.2811048 C170.695242,67.8142935 171.222959,66.8272166 170.87285,66.0764066 C170.522742,65.3255966 169.427387,65.0953702 168.426307,65.5621814 C167.425227,66.0289927 166.897511,67.0160696 167.247619,67.7668796 C167.597728,68.5176896 168.693082,68.747916 169.694162,68.2811048 Z M185.885232,52.9254292 C184.07819,51.2990914 181.990781,51.8689792 181.990781,51.8689792 C181.443588,51.94134 181,52.4488832 181,52.9938303 L181,52.7146504 C181,53.2635277 181.439556,53.6793045 181.994147,53.675116 C181.994147,53.675116 183.716782,53.4073074 184.680537,54.551767 C185.644293,55.6962267 184.956652,57.2688732 184.956652,57.2688732 C184.804158,57.797527 185.127636,58.2260854 185.68525,58.2260854 L185.78404,58.2260854 C186.338928,58.2260853 186.875438,57.7893301 186.95291,57.2414445 C186.95291,57.2414445 187.692274,54.5517671 185.885232,52.9254292 Z M189.258377,49.6727538 C185.945467,46.5405475 181.496957,46.9896696 181.496957,46.9896696 C180.670211,46.9953749 180,47.6744486 180,48.492665 L180,48.1800888 C180,49.0044649 180.679948,49.6392265 181.492743,49.6400384 C181.492743,49.6400384 185.764763,49.1470597 187.752509,52.0000002 C189.740254,54.8529408 188.924435,58.0067557 188.924435,58.0067557 C188.809465,58.8264891 189.385054,59.4910142 190.21183,59.4910142 L189.871027,59.4910142 C190.697005,59.4910142 191.458872,58.8279629 191.534153,58.0090508 C191.534153,58.0090508 192.571287,52.8049598 189.258377,49.6727538 Z" id="sina-weibo-L"></path>
            </g>
        </g>
    </g>
</svg>